<svg xmlns="http://www.w3.org/2000/svg" version="1.1" xmlns:xlink="http://www.w3.org/1999/xlink" xmlns:svgjs="http://svgjs.dev/svgjs" width="100%" height="100%" viewBox="0 0 1000 600"><rect width="1000" height="600" x="0" y="0" fill="#141a46"/><g><rect width="333.3333333333333" height="333.3333333333333" rx="13.333333333333334" ry="13.333333333333334" y="132.70827752834433" fill="#ec8b5e" transform="matrix(1.131364720663491,0,0,1.131364720663491,0,-38.70222140548938)" x="110.4860382080078"/><path d="M258.19291434454624 239.18764237045332L258.19291434454624 224.374930020577L300.19875051570614 224.374930020577L300.19875051570614 239.18764237045332L289.32636558894967 239.18764237045332L289.32636558894967 339.3011465282382Q289.32636558894967 341.198341213444 288.4264142639162 343.7036111182671Q287.52646293888256 346.23320403187495 286.1157284293705 349.05467305089894Q284.70499391985857 351.87614206992305 282.8321222434374 354.81922613287054Q280.9592505670163 357.7866332046027 279.06205588181035 360.6081022236268L279.06205588181035 360.6081022236268Q274.53797624785807 367.1753145954932 268.79774617467115 374.3749251957614L268.79774617467115 374.3749251957614L254.10664886871825 373.08580573017286Q259.1415116871491 365.39973495421077 263.15480813662305 358.3703854154353L263.15480813662305 358.3703854154353Q264.881741760336 355.37865533491845 266.4870603401256 352.2653102104781Q268.11670192869985 349.15196508603776 269.4058213942884 346.23320403187495Q270.69494085987697 343.3387659864968 271.49760014977176 340.80917307288894Q272.30025943966655 338.2795801592812 272.30025943966655 336.47967750921407L272.30025943966655 336.47967750921407L272.30025943966655 239.18764237045332L258.19291434454624 239.18764237045332Z " fill="#141a46" transform="matrix(1.131364720663491,0,0,1.131364720663491,0,-38.70222140548938)"/><path d="M527.1526997352917 289.7666892405674L527.1526997352917 272.9453006454497L560.2663272842899 272.9453006454497L560.2663272842899 357.52569330003985L575.528116936814 357.52569330003985L575.528116936814 374.37493187627535L527.3476496031159 374.37493187627535L527.3476496031159 357.52569330003985L541.8574897654607 357.52569330003985L541.8574897654607 289.7666892405674L527.1526997352917 289.7666892405674ZM538.4319420879782 237.01882500355927L538.4319420879782 237.01882500355927Q538.4319420879782 234.45662674072676 539.4623913893348 232.1729282890717Q540.4928406906912 229.86137985629892 542.1916895388737 228.13468102699875Q543.9183883681739 226.43583217881636 546.2577867820644 225.40538287745977Q548.5971851959549 224.37493357610325 551.2429334021407 224.37493357610325L551.2429334021407 224.37493357610325Q553.8051316649731 224.37493357610325 556.0888301166282 225.40538287745977Q558.400378549401 226.43583217881636 560.0992273975834 228.13468102699875Q561.8259262268836 229.86137985629892 562.8563755282402 232.1729282890717Q563.8868248295967 234.45662674072676 563.8868248295967 237.01882500355927L563.8868248295967 237.01882500355927Q563.8868248295967 239.63672322862726 562.8563755282402 242.00397162363555Q561.8259262268836 244.34337003752609 560.0992273975834 246.15361881017947Q558.400378549401 247.96386758283288 556.0888301166282 248.9943168841894Q553.8051316649731 250.02476618554596 551.2429334021407 250.02476618554596L551.2429334021407 250.02476618554596Q548.5971851959549 250.02476618554596 546.2577867820644 248.9943168841894Q543.9183883681739 247.96386758283288 542.1916895388737 246.15361881017947Q540.4928406906912 244.34337003752609 539.4623913893348 242.00397162363555Q538.4319420879782 239.63672322862726 538.4319420879782 237.01882500355927ZM592.2659555885783 289.7666892405674L592.2659555885783 272.9453006454497L624.571933685162 272.9453006454497L624.571933685162 284.7815426204911L624.794733534104 284.7815426204911Q628.1088812871155 281.9408445464812 631.7850787946578 279.4621962270019Q635.4612763022001 276.9556979264049 639.4716735831554 275.08974919151603Q643.4820708641106 273.22380045662715 647.8266679184787 272.16550117415284Q652.1991149539646 271.07935191056083 656.9057617628634 271.07935191056083L656.9057617628634 271.07935191056083Q667.850804342137 271.07935191056083 675.7880489606943 275.14544915375154Q683.7252935792515 279.2115463969422 688.0420406525018 287.8171905623253L688.0420406525018 287.8171905623253Q691.7460881411619 284.5030428093137 695.8678853465881 281.411694905244Q699.9896825520143 278.3203470011744 704.4178295497356 276.0644985306371Q708.8738265285747 273.8086500600998 713.7754232052978 272.4440009853303Q718.6770198820208 271.07935191056083 723.9685162943923 271.07935191056083L723.9685162943923 271.07935191056083Q732.184260724127 271.07935191056083 738.7568562679146 273.3352003810981Q745.3016018305846 275.59104885163543 749.8968487150124 280.1862957360633Q754.519945580558 284.7815426204911 756.915043956684 291.994687729987Q759.3101423328101 299.17998285836507 759.3101423328101 308.98317621181116L759.3101423328101 308.98317621181116L759.3101423328101 357.52569330003985L773.4022327783888 357.52569330003985L773.4022327783888 374.37493187627535L726.0294148971054 374.37493187627535L726.0294148971054 357.52569330003985L740.3164552105083 357.52569330003985L740.3164552105083 311.21117470123073Q740.3164552105083 299.56988259401345 734.4401091946643 293.55428667258064Q728.5637631788201 287.53869075114784 717.5073206750756 287.53869075114784L717.5073206750756 287.53869075114784Q710.9347251312878 287.53869075114784 704.0836297763227 290.65788863633526Q697.2325344213575 293.8049365026404 692.3309377446344 298.59513325489246L692.3309377446344 298.59513325489246L692.3309377446344 357.52569330003985L706.3394782468599 357.52569330003985L706.3394782468599 374.37493187627535L659.0502103089298 374.37493187627535L659.0502103089298 357.52569330003985L673.3372506223327 357.52569330003985L673.3372506223327 311.21117470123073Q673.3372506223327 299.56988259401345 667.4330546253709 293.55428667258064Q661.5010086472913 287.53869075114784 650.4445661435467 287.53869075114784L650.4445661435467 287.53869075114784Q644.0669204675833 287.53869075114784 637.6057248482665 290.574338692982Q631.1445292289498 293.60998663481615 625.3795831375767 298.093833594773L625.3795831375767 298.093833594773L625.3795831375767 357.52569330003985L639.6666234509796 357.52569330003985L639.6666234509796 374.37493187627535L592.2659555885783 374.37493187627535L592.2659555885783 357.52569330003985L606.3858960152749 357.52569330003985L606.3858960152749 289.7666892405674L592.2659555885783 289.7666892405674Z " fill="#ec8b5e" transform="matrix(1.131364720663491,0,0,1.131364720663491,0,-38.70222140548938)"/></g></svg>